<svg width="88" height="88" viewBox="0 0 88 88" fill="none" xmlns="http://www.w3.org/2000/svg">
<circle cx="44" cy="44" r="44" fill="white"/>
<circle cx="44" cy="44" r="40.75" stroke="#EBEBEB" stroke-width="0.5" stroke-dasharray="1 1"/>
<path d="M60.9766 57.4053L59.1595 34.5461C58.9924 32.3663 57.1465 30.6613 54.9577 30.6613H52.1521V39.0348C52.1521 40.4455 51.0084 41.5873 49.5952 41.5873C48.1838 41.5873 47.0384 40.4455 47.0384 39.0348V30.6613H39.9629V39.0348C39.9629 40.4455 38.8175 41.5873 37.406 41.5873C35.9929 41.5873 34.8492 40.4455 34.8492 39.0348V30.6613H32.0435C29.8549 30.6613 28.0089 32.3662 27.8418 34.5393L26.023 57.4121C25.8542 59.6207 26.6213 61.8193 28.128 63.4442C29.6366 65.0693 31.774 66.0001 33.9917 66.0001H53.0092C55.2268 66.0001 57.3643 65.0693 58.8729 63.4442C60.38 61.8191 61.1471 59.6207 60.9766 57.4053Z" fill="#FF6B00"/>
<path d="M43.5017 22C38.7307 22 34.8494 25.8746 34.8494 30.6357V30.6612H39.9629V30.6357C39.9629 28.689 41.5498 27.1049 43.5015 27.1049C45.4515 27.1049 47.0384 28.689 47.0384 30.6357V30.6612H52.1519V30.6357C52.1523 25.8745 48.2709 22 43.5017 22Z" fill="#FF6B00"/>
</svg>
