<svg width="328" height="100" viewBox="0 0 328 100" fill="none" xmlns="http://www.w3.org/2000/svg">
<rect x="84" y="30" width="159" height="40" rx="5" fill="#50555C"/>
<path d="M133.016 54.496C133.741 54.496 134.269 54.3733 134.6 54.128C134.931 53.8827 135.096 53.536 135.096 53.088C135.096 52.8213 135.037 52.592 134.92 52.4C134.813 52.208 134.653 52.0373 134.44 51.888C134.237 51.728 133.987 51.584 133.688 51.456C133.389 51.3173 133.048 51.184 132.664 51.056C132.28 50.9173 131.907 50.768 131.544 50.608C131.192 50.4373 130.877 50.2293 130.6 49.984C130.333 49.7387 130.115 49.4453 129.944 49.104C129.784 48.7627 129.704 48.352 129.704 47.872C129.704 46.8693 130.051 46.0853 130.744 45.52C131.437 44.944 132.381 44.656 133.576 44.656C134.269 44.656 134.883 44.736 135.416 44.896C135.96 45.0453 136.387 45.2107 136.696 45.392L136.072 47.024C135.709 46.8213 135.309 46.6667 134.872 46.56C134.445 46.4533 134.003 46.4 133.544 46.4C133 46.4 132.573 46.512 132.264 46.736C131.965 46.96 131.816 47.2747 131.816 47.68C131.816 47.9253 131.864 48.1387 131.96 48.32C132.067 48.4907 132.211 48.6453 132.392 48.784C132.584 48.9227 132.803 49.0507 133.048 49.168C133.304 49.2853 133.581 49.3973 133.88 49.504C134.403 49.696 134.867 49.8933 135.272 50.096C135.688 50.288 136.035 50.5227 136.312 50.8C136.6 51.0667 136.819 51.3867 136.968 51.76C137.117 52.1227 137.192 52.5653 137.192 53.088C137.192 54.0907 136.835 54.8693 136.12 55.424C135.416 55.968 134.381 56.24 133.016 56.24C132.557 56.24 132.136 56.208 131.752 56.144C131.379 56.0907 131.043 56.0213 130.744 55.936C130.456 55.8507 130.205 55.7653 129.992 55.68C129.779 55.584 129.608 55.4987 129.48 55.424L130.072 53.776C130.36 53.936 130.749 54.096 131.24 54.256C131.731 54.416 132.323 54.496 133.016 54.496ZM145.737 55.744C145.363 55.84 144.878 55.936 144.281 56.032C143.683 56.1387 143.027 56.192 142.313 56.192C141.641 56.192 141.075 56.096 140.617 55.904C140.169 55.712 139.806 55.4453 139.529 55.104C139.262 54.7627 139.07 54.3573 138.953 53.888C138.835 53.408 138.777 52.8853 138.777 52.32V47.632H140.713V52.016C140.713 52.912 140.841 53.552 141.097 53.936C141.363 54.32 141.822 54.512 142.473 54.512C142.707 54.512 142.953 54.5013 143.209 54.48C143.475 54.4587 143.673 54.432 143.801 54.4V47.632H145.737V55.744ZM152.969 49.376C152.809 49.3227 152.585 49.2693 152.297 49.216C152.019 49.152 151.694 49.12 151.321 49.12C151.107 49.12 150.878 49.1413 150.633 49.184C150.398 49.2267 150.233 49.264 150.137 49.296V56H148.201V48.032C148.574 47.8933 149.038 47.7653 149.593 47.648C150.158 47.52 150.782 47.456 151.465 47.456C151.593 47.456 151.742 47.4667 151.913 47.488C152.083 47.4987 152.254 47.52 152.425 47.552C152.595 47.5733 152.761 47.6053 152.921 47.648C153.081 47.68 153.209 47.712 153.305 47.744L152.969 49.376ZM157.598 54.64C158.195 54.64 158.649 54.608 158.958 54.544V52.4C158.851 52.368 158.697 52.336 158.494 52.304C158.291 52.272 158.067 52.256 157.822 52.256C157.609 52.256 157.39 52.272 157.166 52.304C156.953 52.336 156.755 52.3947 156.574 52.48C156.403 52.5653 156.265 52.688 156.158 52.848C156.051 52.9973 155.998 53.1893 155.998 53.424C155.998 53.8827 156.142 54.2027 156.43 54.384C156.718 54.5547 157.107 54.64 157.598 54.64ZM157.438 47.424C158.078 47.424 158.617 47.504 159.054 47.664C159.491 47.824 159.838 48.048 160.094 48.336C160.361 48.624 160.547 48.976 160.654 49.392C160.771 49.7973 160.83 50.2453 160.83 50.736V55.808C160.531 55.872 160.078 55.9467 159.47 56.032C158.873 56.128 158.195 56.176 157.438 56.176C156.937 56.176 156.478 56.128 156.062 56.032C155.646 55.936 155.289 55.7813 154.99 55.568C154.702 55.3547 154.473 55.0773 154.302 54.736C154.142 54.3947 154.062 53.9733 154.062 53.472C154.062 52.992 154.153 52.5867 154.334 52.256C154.526 51.9253 154.782 51.6587 155.102 51.456C155.422 51.2427 155.79 51.0933 156.206 51.008C156.633 50.912 157.075 50.864 157.534 50.864C157.747 50.864 157.971 50.88 158.206 50.912C158.441 50.9333 158.691 50.976 158.958 51.04V50.72C158.958 50.496 158.931 50.2827 158.878 50.08C158.825 49.8773 158.729 49.7013 158.59 49.552C158.462 49.392 158.286 49.2693 158.062 49.184C157.849 49.0987 157.577 49.056 157.246 49.056C156.798 49.056 156.387 49.088 156.014 49.152C155.641 49.216 155.337 49.2907 155.102 49.376L154.862 47.808C155.107 47.7227 155.465 47.6373 155.934 47.552C156.403 47.4667 156.905 47.424 157.438 47.424ZM163.105 45.424L165.041 45.104V47.632H168.017V49.248H165.041V52.656C165.041 53.328 165.147 53.808 165.361 54.096C165.574 54.384 165.937 54.528 166.449 54.528C166.801 54.528 167.11 54.4907 167.377 54.416C167.654 54.3413 167.873 54.272 168.033 54.208L168.353 55.744C168.129 55.84 167.835 55.936 167.473 56.032C167.11 56.1387 166.683 56.192 166.193 56.192C165.595 56.192 165.094 56.112 164.689 55.952C164.294 55.792 163.979 55.5627 163.745 55.264C163.51 54.9547 163.345 54.5867 163.249 54.16C163.153 53.7227 163.105 53.2267 163.105 52.672V45.424ZM175.143 51.6C175.143 52.4213 175.319 53.024 175.671 53.408C176.033 53.7813 176.497 53.968 177.063 53.968C177.372 53.968 177.66 53.9253 177.927 53.84C178.204 53.7547 178.428 53.6533 178.599 53.536V49.2C178.46 49.168 178.289 49.1413 178.087 49.12C177.884 49.088 177.628 49.072 177.319 49.072C176.615 49.072 176.076 49.3067 175.703 49.776C175.329 50.2347 175.143 50.8427 175.143 51.6ZM180.535 55.152C180.535 56.4853 180.193 57.4613 179.511 58.08C178.839 58.6987 177.804 59.008 176.407 59.008C175.895 59.008 175.393 58.9653 174.903 58.88C174.423 58.7947 173.985 58.6827 173.591 58.544L173.943 56.896C174.273 57.0347 174.647 57.1467 175.063 57.232C175.489 57.3173 175.948 57.36 176.439 57.36C177.217 57.36 177.772 57.2 178.103 56.88C178.433 56.56 178.599 56.0853 178.599 55.456V55.136C178.407 55.232 178.151 55.328 177.831 55.424C177.521 55.52 177.164 55.568 176.759 55.568C176.225 55.568 175.735 55.4827 175.287 55.312C174.849 55.1413 174.471 54.8907 174.151 54.56C173.841 54.2293 173.596 53.8187 173.415 53.328C173.244 52.8267 173.159 52.2507 173.159 51.6C173.159 50.992 173.249 50.432 173.431 49.92C173.623 49.408 173.895 48.9707 174.247 48.608C174.609 48.2453 175.047 47.9627 175.559 47.76C176.071 47.5573 176.652 47.456 177.303 47.456C177.932 47.456 178.529 47.504 179.095 47.6C179.66 47.696 180.14 47.7973 180.535 47.904V55.152ZM190.566 51.808C190.566 52.4693 190.47 53.072 190.278 53.616C190.086 54.16 189.814 54.624 189.462 55.008C189.11 55.392 188.683 55.6907 188.182 55.904C187.691 56.1173 187.147 56.224 186.55 56.224C185.952 56.224 185.408 56.1173 184.918 55.904C184.427 55.6907 184.006 55.392 183.654 55.008C183.302 54.624 183.024 54.16 182.822 53.616C182.63 53.072 182.534 52.4693 182.534 51.808C182.534 51.1467 182.63 50.5493 182.822 50.016C183.024 49.472 183.302 49.008 183.654 48.624C184.016 48.24 184.443 47.9467 184.934 47.744C185.424 47.5307 185.963 47.424 186.55 47.424C187.136 47.424 187.675 47.5307 188.166 47.744C188.667 47.9467 189.094 48.24 189.446 48.624C189.798 49.008 190.07 49.472 190.262 50.016C190.464 50.5493 190.566 51.1467 190.566 51.808ZM188.582 51.808C188.582 50.976 188.4 50.32 188.038 49.84C187.686 49.3493 187.19 49.104 186.55 49.104C185.91 49.104 185.408 49.3493 185.046 49.84C184.694 50.32 184.518 50.976 184.518 51.808C184.518 52.6507 184.694 53.3173 185.046 53.808C185.408 54.2987 185.91 54.544 186.55 54.544C187.19 54.544 187.686 54.2987 188.038 53.808C188.4 53.3173 188.582 52.6507 188.582 51.808ZM195.344 56.624C195.685 56.784 195.92 56.9653 196.048 57.168C196.187 57.3707 196.256 57.6213 196.256 57.92C196.256 58.2933 196.096 58.6133 195.776 58.88C195.456 59.1467 194.976 59.28 194.336 59.28C193.824 59.28 193.371 59.2107 192.976 59.072L193.2 57.92C193.307 57.952 193.445 57.9893 193.616 58.032C193.787 58.0747 193.963 58.096 194.144 58.096C194.325 58.096 194.464 58.064 194.56 58C194.667 57.936 194.72 57.84 194.72 57.712C194.72 57.5413 194.645 57.4133 194.496 57.328C194.347 57.2533 194.197 57.1893 194.048 57.136L193.888 57.088C193.931 56.9707 193.984 56.8267 194.048 56.656C194.112 56.496 194.181 56.3413 194.256 56.192C193.637 56.1707 193.131 56.1067 192.736 56C192.352 55.8827 192.08 55.792 191.92 55.728L192.256 54.112C192.544 54.2293 192.885 54.3413 193.28 54.448C193.685 54.5547 194.144 54.608 194.656 54.608C195.168 54.608 195.541 54.5493 195.776 54.432C196.011 54.304 196.128 54.0907 196.128 53.792C196.128 53.5147 196 53.2853 195.744 53.104C195.499 52.9227 195.088 52.7253 194.512 52.512C194.16 52.384 193.835 52.2507 193.536 52.112C193.248 51.9627 192.997 51.792 192.784 51.6C192.571 51.408 192.4 51.1787 192.272 50.912C192.155 50.6347 192.096 50.2987 192.096 49.904C192.096 49.136 192.379 48.5333 192.944 48.096C193.509 47.648 194.277 47.424 195.248 47.424C195.739 47.424 196.208 47.472 196.656 47.568C197.104 47.6533 197.44 47.7387 197.664 47.824L197.312 49.392C197.099 49.296 196.827 49.2107 196.496 49.136C196.165 49.0507 195.781 49.008 195.344 49.008C194.949 49.008 194.629 49.0773 194.384 49.216C194.139 49.344 194.016 49.5467 194.016 49.824C194.016 49.9627 194.037 50.0853 194.08 50.192C194.133 50.2987 194.219 50.4 194.336 50.496C194.453 50.5813 194.608 50.672 194.8 50.768C194.992 50.8533 195.227 50.944 195.504 51.04C195.963 51.2107 196.352 51.3813 196.672 51.552C196.992 51.712 197.253 51.8987 197.456 52.112C197.669 52.3147 197.824 52.5493 197.92 52.816C198.016 53.0827 198.064 53.4027 198.064 53.776C198.064 54.4587 197.845 54.9973 197.408 55.392C196.981 55.7867 196.368 56.0373 195.568 56.144C195.472 56.3147 195.397 56.4747 195.344 56.624Z" fill="white"/>
<rect x="0.5" y="0.5" width="327" height="99" rx="9.5" stroke="black" stroke-dasharray="8 8"/>
</svg>
