<svg width="16" height="16" viewBox="0 0 16 16" fill="none" xmlns="http://www.w3.org/2000/svg">
<path d="M8 1.33325C4.32666 1.33325 1.33333 4.32659 1.33333 7.99992C1.33333 11.6733 4.32666 14.6666 8 14.6666C11.6733 14.6666 14.6667 11.6733 14.6667 7.99992C14.6667 4.32659 11.6733 1.33325 8 1.33325ZM10.9 10.3799C10.8067 10.5399 10.64 10.6266 10.4667 10.6266C10.38 10.6266 10.2933 10.6066 10.2133 10.5533L8.14666 9.31992C7.63333 9.01325 7.25333 8.33992 7.25333 7.74659V5.01325C7.25333 4.73992 7.48 4.51325 7.75333 4.51325C8.02666 4.51325 8.25333 4.73992 8.25333 5.01325V7.74659C8.25333 7.98659 8.45333 8.33992 8.66 8.45992L10.7267 9.69325C10.9667 9.83325 11.0467 10.1399 10.9 10.3799Z" fill="#909090"/>
</svg>
