<svg width="16" height="16" viewBox="0 0 16 16" fill="none" xmlns="http://www.w3.org/2000/svg">
<path d="M10.79 12.912L9.176 11.297C8.55184 11.5202 7.87715 11.5615 7.23042 11.4162C6.58369 11.2709 5.99153 10.9449 5.52282 10.4762C5.05411 10.0075 4.72814 9.41531 4.58283 8.76858C4.43752 8.12185 4.47885 7.44716 4.702 6.823L2.642 4.763C0.938 6.278 0 8 0 8C0 8 3 13.5 8 13.5C8.9604 13.4967 9.90994 13.2965 10.79 12.912ZM5.21 3.088C6.09005 2.70342 7.03959 2.50331 8 2.5C13 2.5 16 8 16 8C16 8 15.061 9.721 13.359 11.238L11.297 9.176C11.5202 8.55184 11.5615 7.87715 11.4162 7.23042C11.2709 6.58369 10.9449 5.99153 10.4762 5.52282C10.0075 5.05411 9.41531 4.72814 8.76858 4.58283C8.12185 4.43752 7.44716 4.47885 6.823 4.702L5.21 3.089V3.088Z" fill="#A0A3BD"/>
<path d="M5.52501 7.646C5.47 8.03031 5.50525 8.42215 5.62797 8.79047C5.75069 9.15879 5.9575 9.49347 6.23202 9.76799C6.50654 10.0425 6.84122 10.2493 7.20954 10.372C7.57786 10.4948 7.9697 10.53 8.35401 10.475L5.52401 7.646H5.52501ZM10.475 8.354L7.64601 5.524C8.03032 5.46899 8.42216 5.50425 8.79048 5.62696C9.1588 5.74968 9.49348 5.95649 9.768 6.23101C10.0425 6.50553 10.2493 6.84021 10.372 7.20853C10.4948 7.57685 10.53 7.96869 10.475 8.353V8.354Z" fill="#A0A3BD"/>
<path fill-rule="evenodd" clip-rule="evenodd" d="M13.646 14.354L1.64603 2.354L2.35403 1.646L14.354 13.646L13.646 14.354Z" fill="#A0A3BD"/>
</svg>
