<svg width="20" height="20" viewBox="0 0 20 20" fill="none" xmlns="http://www.w3.org/2000/svg">
<path d="M18.162 4.23402C18.0098 4.01904 17.851 3.80939 17.682 3.60753C15.8464 1.40478 13.084 0 10 0C9.99426 0 9.98974 0.000410273 9.98482 0.000410273C9.98154 0.000410273 9.97908 0 9.97579 0C9.96472 0 9.95323 0.00123082 9.94133 0.00123082C6.88069 0.0188726 4.14253 1.41955 2.31763 3.60753C2.14942 3.8098 1.98983 4.01904 1.83761 4.23402C0.682284 5.86486 0 7.85345 0 10C0 12.1461 0.681874 14.1356 1.83761 15.766C1.98983 15.981 2.14942 16.1906 2.31763 16.3925C4.14212 18.5805 6.88028 19.9811 9.94133 19.9988C9.95323 19.9988 9.96472 20 9.97579 20C9.97908 20 9.98154 19.9996 9.98441 19.9996C9.98933 19.9996 9.99384 20 9.99959 20C13.084 20 15.846 18.5956 17.682 16.3929C17.8502 16.191 18.0098 15.981 18.162 15.766C19.3173 14.1351 19.9996 12.1465 19.9996 9.99959C19.9996 7.85386 19.3173 5.86486 18.162 4.23402ZM7.0768 1.30057C6.15779 2.18717 5.39386 3.48322 4.86748 5.03857C4.16222 4.77517 3.52753 4.45803 2.98022 4.09945C4.05309 2.82514 5.46402 1.84377 7.0768 1.30057ZM2.49856 4.72676C3.12054 5.14195 3.83934 5.50505 4.63404 5.80414C4.29105 7.05711 4.09412 8.44794 4.08673 9.91548H0.822188C0.839829 7.98515 1.46139 6.19882 2.49856 4.72676ZM0.852958 10.736H4.10273C4.15566 11.9644 4.34233 13.13 4.63322 14.1963C3.83811 14.4954 3.11972 14.8585 2.49856 15.2741C1.57914 13.969 0.986297 12.4173 0.852958 10.736ZM2.98269 15.8989C3.52999 15.5411 4.16304 15.2248 4.86666 14.9614C5.39304 16.5172 6.15738 17.8124 7.0768 18.699C5.46402 18.1562 4.05596 17.1728 2.98269 15.8989ZM9.58973 19.1499C7.90597 18.9193 6.45278 17.1925 5.62895 14.7054C6.81669 14.3493 8.16115 14.1335 9.58973 14.0986V19.1499ZM9.58973 13.2789C8.0832 13.315 6.66325 13.5476 5.39879 13.9358C5.1399 12.9527 4.97415 11.8741 4.92451 10.7364H9.58973V13.2789ZM9.58973 9.91548H4.90728C4.91466 8.53738 5.09395 7.23558 5.40248 6.06548C6.6653 6.45237 8.08443 6.6854 9.58932 6.7211V9.91548H9.58973ZM9.58973 5.90137C8.16198 5.8665 6.81792 5.65151 5.63141 5.2954C6.45483 2.80955 7.90679 1.08107 9.58973 0.850086V5.90137ZM19.1766 9.91548H15.8649C15.8575 8.45409 15.663 7.06901 15.3225 5.82055C16.1348 5.51859 16.8688 5.14975 17.501 4.72717C18.5378 6.19923 19.1589 7.98515 19.1766 9.91548ZM17.0185 4.10027C16.4602 4.46582 15.8111 4.78789 15.089 5.05416C14.5577 3.47748 13.7827 2.16583 12.8493 1.27595C14.4921 1.81382 15.9289 2.80627 17.0185 4.10027ZM10.4103 0.85624C12.0756 1.11348 13.5099 2.83868 14.3247 5.3077C13.1493 5.65603 11.8204 5.86691 10.4103 5.90137V0.85624ZM10.4103 6.72151C11.8975 6.68622 13.3006 6.45811 14.5524 6.07943C14.8593 7.24625 15.0373 8.54312 15.0443 9.91589H10.4103V6.72151ZM10.4103 10.736H15.0275C14.9778 11.8684 14.8129 12.9421 14.5565 13.9222C13.3031 13.5423 11.8983 13.3146 10.4111 13.2789L10.4103 10.736ZM10.4103 19.1438V14.099C11.8212 14.1335 13.1501 14.3444 14.3272 14.6927C13.5111 17.1625 12.0752 18.8865 10.4103 19.1438ZM12.8493 18.7245C13.7827 17.835 14.5594 16.5242 15.0907 14.9471C15.8111 15.2129 16.4593 15.5346 17.0169 15.8993C15.9272 17.1929 14.4921 18.1862 12.8493 18.7245ZM17.501 15.2741C16.8688 14.8515 16.1348 14.4818 15.3221 14.1803C15.6101 13.1185 15.7951 11.9582 15.8472 10.7364H19.1462C19.0129 12.4173 18.4217 13.9694 17.501 15.2741Z" fill="black"/>
</svg>
