<svg width="16" height="16" viewBox="0 0 16 16" fill="none" xmlns="http://www.w3.org/2000/svg">
<g clip-path="url(#clip0_1395_19938)">
<path fill-rule="evenodd" clip-rule="evenodd" d="M10.4417 10.442C10.5346 10.349 10.6449 10.2752 10.7663 10.2249C10.8877 10.1746 11.0178 10.1487 11.1492 10.1487C11.2806 10.1487 11.4107 10.1746 11.5321 10.2249C11.6535 10.2752 11.7638 10.349 11.8567 10.442L15.7067 14.292C15.8943 14.4795 15.9998 14.7338 15.9999 14.9991C16 15.2644 15.8947 15.5188 15.7072 15.7065C15.5197 15.8941 15.2653 15.9996 15.0001 15.9997C14.7348 15.9998 14.4803 15.8945 14.2927 15.707L10.4427 11.857C10.3497 11.7641 10.276 11.6538 10.2256 11.5324C10.1753 11.411 10.1494 11.2809 10.1494 11.1495C10.1494 11.0181 10.1753 10.8879 10.2256 10.7665C10.276 10.6451 10.3497 10.5348 10.4427 10.442H10.4417Z" fill="#A0A3BD"/>
<path fill-rule="evenodd" clip-rule="evenodd" d="M6.49951 12C7.22178 12 7.93698 11.8577 8.60427 11.5813C9.27156 11.3049 9.87788 10.8998 10.3886 10.3891C10.8993 9.87837 11.3045 9.27205 11.5809 8.60476C11.8573 7.93747 11.9995 7.22227 11.9995 6.5C11.9995 5.77773 11.8573 5.06253 11.5809 4.39524C11.3045 3.72795 10.8993 3.12163 10.3886 2.61091C9.87788 2.10019 9.27156 1.69506 8.60427 1.41866C7.93698 1.14226 7.22178 1 6.49951 1C5.04082 1 3.64188 1.57946 2.61042 2.61091C1.57897 3.64236 0.999512 5.04131 0.999512 6.5C0.999512 7.95869 1.57897 9.35764 2.61042 10.3891C3.64188 11.4205 5.04082 12 6.49951 12ZM12.9995 6.5C12.9995 8.22391 12.3147 9.87721 11.0957 11.0962C9.87672 12.3152 8.22342 13 6.49951 13C4.77561 13 3.1223 12.3152 1.90332 11.0962C0.684331 9.87721 -0.000488281 8.22391 -0.000488281 6.5C-0.000488281 4.77609 0.684331 3.12279 1.90332 1.90381C3.1223 0.684819 4.77561 0 6.49951 0C8.22342 0 9.87672 0.684819 11.0957 1.90381C12.3147 3.12279 12.9995 4.77609 12.9995 6.5Z" fill="#A0A3BD"/>
</g>
<defs>
<clipPath id="clip0_1395_19938">
<rect width="16" height="16" fill="white" transform="translate(-0.000488281)"/>
</clipPath>
</defs>
</svg>
