<svg width="22" height="22" viewBox="0 0 22 22" fill="none" xmlns="http://www.w3.org/2000/svg">
<path d="M6.63666 1.83334H4.89499C2.88749 1.83334 1.83333 2.88751 1.83333 4.88584V6.62751C1.83333 8.62584 2.88749 9.68001 4.88583 9.68001H6.62749C8.62583 9.68001 9.68 8.62584 9.68 6.62751V4.88584C9.68916 2.88751 8.63499 1.83334 6.63666 1.83334Z" fill="#FF6B00"/>
<path d="M17.1142 1.83334H15.3725C13.3742 1.83334 12.32 2.88751 12.32 4.88584V6.62751C12.32 8.62584 13.3742 9.68001 15.3725 9.68001H17.1142C19.1125 9.68001 20.1667 8.62584 20.1667 6.62751V4.88584C20.1667 2.88751 19.1125 1.83334 17.1142 1.83334Z" fill="#FF6B00"/>
<path d="M17.1142 12.3108H15.3725C13.3742 12.3108 12.32 13.365 12.32 15.3633V17.105C12.32 19.1033 13.3742 20.1575 15.3725 20.1575H17.1142C19.1125 20.1575 20.1667 19.1033 20.1667 17.105V15.3633C20.1667 13.365 19.1125 12.3108 17.1142 12.3108Z" fill="#FF6B00"/>
<path d="M6.63666 12.3108H4.89499C2.88749 12.3108 1.83333 13.365 1.83333 15.3633V17.105C1.83333 19.1125 2.88749 20.1667 4.88583 20.1667H6.62749C8.62583 20.1667 9.68 19.1125 9.68 17.1142V15.3725C9.68916 13.365 8.63499 12.3108 6.63666 12.3108Z" fill="#FF6B00"/>
</svg>
