<svg width="16" height="16" viewBox="0 0 16 16" fill="none" xmlns="http://www.w3.org/2000/svg">
<path d="M8 1.33325C4.32666 1.33325 1.33333 4.32659 1.33333 7.99992C1.33333 11.6733 4.32666 14.6666 8 14.6666C11.6733 14.6666 14.6667 11.6733 14.6667 7.99992C14.6667 4.32659 11.6733 1.33325 8 1.33325ZM10.24 9.53325C10.4333 9.72659 10.4333 10.0466 10.24 10.2399C10.14 10.3399 10.0133 10.3866 9.88666 10.3866C9.76 10.3866 9.63333 10.3399 9.53333 10.2399L8 8.70659L6.46666 10.2399C6.36666 10.3399 6.24 10.3866 6.11333 10.3866C5.98666 10.3866 5.86 10.3399 5.76 10.2399C5.56666 10.0466 5.56666 9.72659 5.76 9.53325L7.29333 7.99992L5.76 6.46659C5.56666 6.27325 5.56666 5.95325 5.76 5.75992C5.95333 5.56659 6.27333 5.56659 6.46666 5.75992L8 7.29325L9.53333 5.75992C9.72666 5.56659 10.0467 5.56659 10.24 5.75992C10.4333 5.95325 10.4333 6.27325 10.24 6.46659L8.70666 7.99992L10.24 9.53325Z" fill="#FF5A5A"/>
</svg>
