<svg xmlns="http://www.w3.org/2000/svg" width="20.193" height="22.031" viewBox="0 0 20.193 22.031">
  <g id="package" transform="translate(1.096 1.031)">
    <line id="Линия_12" data-name="Линия 12" x1="9" y1="5.19" transform="translate(4.5 2.208)" fill="none" stroke="#000" stroke-linecap="round" stroke-linejoin="round" stroke-width="2"/>
    <path id="Контур_123" data-name="Контур 123" d="M21,15.945V7.977a1.991,1.991,0,0,0-1-1.723L13,2.269a2.007,2.007,0,0,0-2,0L4,6.253A1.991,1.991,0,0,0,3,7.977v7.969a1.991,1.991,0,0,0,1,1.723l7,3.984a2.007,2.007,0,0,0,2,0l7-3.984A1.991,1.991,0,0,0,21,15.945Z" transform="translate(-3 -2.002)" fill="none" stroke="#000" stroke-linecap="round" stroke-linejoin="round" stroke-width="2"/>
    <path id="Контур_124" data-name="Контур 124" d="M3.27,6.96,12,12.01l8.73-5.05" transform="translate(-3 -2.028)" fill="none" stroke="#000" stroke-linecap="round" stroke-linejoin="round" stroke-width="2"/>
    <line id="Линия_13" data-name="Линия 13" y1="10.08" transform="translate(9 9.92)" fill="none" stroke="#000" stroke-linecap="round" stroke-linejoin="round" stroke-width="2"/>
  </g>
</svg>
