<svg width="16" height="16" viewBox="0 0 16 16" fill="none" xmlns="http://www.w3.org/2000/svg">
<path d="M8 1.33325C4.32666 1.33325 1.33333 4.32659 1.33333 7.99992C1.33333 11.6733 4.32666 14.6666 8 14.6666C11.6733 14.6666 14.6667 11.6733 14.6667 7.99992C14.6667 4.32659 11.6733 1.33325 8 1.33325ZM7.5 5.33325C7.5 5.05992 7.72666 4.83325 8 4.83325C8.27333 4.83325 8.5 5.05992 8.5 5.33325V8.66659C8.5 8.93992 8.27333 9.16659 8 9.16659C7.72666 9.16659 7.5 8.93992 7.5 8.66659V5.33325ZM8.61333 10.9199C8.58 11.0066 8.53333 11.0733 8.47333 11.1399C8.40666 11.1999 8.33333 11.2466 8.25333 11.2799C8.17333 11.3133 8.08666 11.3333 8 11.3333C7.91333 11.3333 7.82666 11.3133 7.74666 11.2799C7.66666 11.2466 7.59333 11.1999 7.52666 11.1399C7.46666 11.0733 7.41999 11.0066 7.38666 10.9199C7.35333 10.8399 7.33333 10.7533 7.33333 10.6666C7.33333 10.5799 7.35333 10.4933 7.38666 10.4133C7.41999 10.3333 7.46666 10.2599 7.52666 10.1933C7.59333 10.1333 7.66666 10.0866 7.74666 10.0533C7.90666 9.98659 8.09333 9.98659 8.25333 10.0533C8.33333 10.0866 8.40666 10.1333 8.47333 10.1933C8.53333 10.2599 8.58 10.3333 8.61333 10.4133C8.64666 10.4933 8.66666 10.5799 8.66666 10.6666C8.66666 10.7533 8.64666 10.8399 8.61333 10.9199Z" fill="#FF5A5A"/>
</svg>
