<svg width="20" height="20" viewBox="0 0 20 20" fill="none" xmlns="http://www.w3.org/2000/svg">
<path d="M13.4917 1.66663H6.50834C3.475 1.66663 1.66667 3.47496 1.66667 6.50829V13.4833C1.66667 16.525 3.475 18.3333 6.50834 18.3333H13.4833C16.5167 18.3333 18.325 16.525 18.325 13.4916V6.50829C18.3333 3.47496 16.525 1.66663 13.4917 1.66663ZM15 10.625H10.625V15C10.625 15.3416 10.3417 15.625 10 15.625C9.65834 15.625 9.375 15.3416 9.375 15V10.625H5.00001C4.65834 10.625 4.37501 10.3416 4.37501 9.99996C4.37501 9.65829 4.65834 9.37496 5.00001 9.37496H9.375V4.99996C9.375 4.65829 9.65834 4.37496 10 4.37496C10.3417 4.37496 10.625 4.65829 10.625 4.99996V9.37496H15C15.3417 9.37496 15.625 9.65829 15.625 9.99996C15.625 10.3416 15.3417 10.625 15 10.625Z" fill="white"/>
</svg>
