<svg width="16" height="16" viewBox="0 0 16 16" fill="none" xmlns="http://www.w3.org/2000/svg">
<path d="M8 1.33325C4.32666 1.33325 1.33333 4.32659 1.33333 7.99992C1.33333 11.6733 4.32666 14.6666 8 14.6666C11.6733 14.6666 14.6667 11.6733 14.6667 7.99992C14.6667 4.32659 11.6733 1.33325 8 1.33325ZM11.1867 6.46659L7.40666 10.2466C7.31333 10.3399 7.18666 10.3933 7.05333 10.3933C6.91999 10.3933 6.79333 10.3399 6.7 10.2466L4.81333 8.35992C4.61999 8.16659 4.61999 7.84659 4.81333 7.65325C5.00666 7.45992 5.32666 7.45992 5.51999 7.65325L7.05333 9.18659L10.48 5.75992C10.6733 5.56659 10.9933 5.56659 11.1867 5.75992C11.38 5.95325 11.38 6.26659 11.1867 6.46659Z" fill="#23B073"/>
</svg>
